<mxfile host="app.diagrams.net" modified="2022-05-27T11:45:57.409Z" agent="5.0 (Windows)" etag="C0fw3uQkZ0XwlQD-Kq6y" version="18.1.3" type="github">
  <diagram id="C5RBs43oDa-KdzZeNtuy" name="Page-1">
    <mxGraphModel dx="1422" dy="752" grid="1" gridSize="10" guides="1" tooltips="1" connect="1" arrows="1" fold="1" page="1" pageScale="1" pageWidth="827" pageHeight="1169" math="0" shadow="0">
      <root>
        <mxCell id="WIyWlLk6GJQsqaUBKTNV-0" />
        <mxCell id="WIyWlLk6GJQsqaUBKTNV-1" parent="WIyWlLk6GJQsqaUBKTNV-0" />
        <mxCell id="F1O0uO3cKCnz4N3ddY6l-18" style="edgeStyle=orthogonalEdgeStyle;rounded=0;orthogonalLoop=1;jettySize=auto;html=1;" edge="1" parent="WIyWlLk6GJQsqaUBKTNV-1" source="F1O0uO3cKCnz4N3ddY6l-0" target="F1O0uO3cKCnz4N3ddY6l-17">
          <mxGeometry relative="1" as="geometry" />
        </mxCell>
        <mxCell id="F1O0uO3cKCnz4N3ddY6l-24" style="edgeStyle=orthogonalEdgeStyle;rounded=0;orthogonalLoop=1;jettySize=auto;html=1;entryX=0.541;entryY=-0.017;entryDx=0;entryDy=0;entryPerimeter=0;" edge="1" parent="WIyWlLk6GJQsqaUBKTNV-1" source="F1O0uO3cKCnz4N3ddY6l-0" target="F1O0uO3cKCnz4N3ddY6l-23">
          <mxGeometry relative="1" as="geometry" />
        </mxCell>
        <mxCell id="F1O0uO3cKCnz4N3ddY6l-0" value="MonoBehaviourId : MonoBehaviour" style="swimlane;" vertex="1" parent="WIyWlLk6GJQsqaUBKTNV-1">
          <mxGeometry x="120" y="90" width="280" height="70" as="geometry" />
        </mxCell>
        <mxCell id="F1O0uO3cKCnz4N3ddY6l-2" value="&lt;div align=&quot;left&quot;&gt;string ID&lt;/div&gt;&lt;div align=&quot;left&quot;&gt;void resetId()&lt;/div&gt;&lt;div align=&quot;left&quot;&gt;&lt;br&gt;&lt;/div&gt;" style="text;html=1;align=center;verticalAlign=middle;resizable=0;points=[];autosize=1;strokeColor=none;fillColor=none;" vertex="1" parent="F1O0uO3cKCnz4N3ddY6l-0">
          <mxGeometry y="20" width="90" height="50" as="geometry" />
        </mxCell>
        <mxCell id="F1O0uO3cKCnz4N3ddY6l-13" value="GUID to generate Id" style="text;html=1;align=center;verticalAlign=middle;resizable=0;points=[];autosize=1;strokeColor=none;fillColor=none;" vertex="1" parent="F1O0uO3cKCnz4N3ddY6l-0">
          <mxGeometry x="110" y="30" width="120" height="20" as="geometry" />
        </mxCell>
        <mxCell id="F1O0uO3cKCnz4N3ddY6l-6" value="FileDataHandler" style="swimlane;" vertex="1" parent="WIyWlLk6GJQsqaUBKTNV-1">
          <mxGeometry x="325" y="750" width="200" height="110" as="geometry" />
        </mxCell>
        <mxCell id="F1O0uO3cKCnz4N3ddY6l-7" value="&lt;div align=&quot;left&quot;&gt;FileDataHandler(string filePath)&lt;br&gt;&lt;/div&gt;&lt;div align=&quot;left&quot;&gt;void Save()&lt;/div&gt;&lt;div align=&quot;left&quot;&gt;void Load()&lt;/div&gt;&lt;div align=&quot;left&quot;&gt;EncryptAndDecrypt&lt;br&gt;&lt;/div&gt;&lt;div&gt;&lt;br&gt;&lt;/div&gt;" style="text;html=1;align=center;verticalAlign=middle;resizable=0;points=[];autosize=1;strokeColor=none;fillColor=none;" vertex="1" parent="F1O0uO3cKCnz4N3ddY6l-6">
          <mxGeometry x="5" y="30" width="190" height="80" as="geometry" />
        </mxCell>
        <mxCell id="F1O0uO3cKCnz4N3ddY6l-10" value="" style="group" vertex="1" connectable="0" parent="WIyWlLk6GJQsqaUBKTNV-1">
          <mxGeometry x="450" y="100" width="356" height="60" as="geometry" />
        </mxCell>
        <mxCell id="F1O0uO3cKCnz4N3ddY6l-8" value="IPersistentData" style="swimlane;startSize=23;" vertex="1" parent="F1O0uO3cKCnz4N3ddY6l-10">
          <mxGeometry width="356" height="60" as="geometry" />
        </mxCell>
        <mxCell id="F1O0uO3cKCnz4N3ddY6l-14" value="&lt;div&gt;Save in disable callback &lt;br&gt;&lt;/div&gt;&lt;div&gt;Load in enable callback&lt;/div&gt;" style="text;html=1;align=center;verticalAlign=middle;resizable=0;points=[];autosize=1;strokeColor=none;fillColor=none;" vertex="1" parent="F1O0uO3cKCnz4N3ddY6l-8">
          <mxGeometry x="146" y="25" width="150" height="30" as="geometry" />
        </mxCell>
        <mxCell id="F1O0uO3cKCnz4N3ddY6l-9" value="&lt;div&gt;void Save()&lt;/div&gt;&lt;div&gt;void Load()&lt;br&gt;&lt;/div&gt;" style="text;html=1;align=center;verticalAlign=middle;resizable=0;points=[];autosize=1;strokeColor=none;fillColor=none;" vertex="1" parent="F1O0uO3cKCnz4N3ddY6l-10">
          <mxGeometry x="17.8" y="25" width="80" height="30" as="geometry" />
        </mxCell>
        <mxCell id="F1O0uO3cKCnz4N3ddY6l-31" style="edgeStyle=orthogonalEdgeStyle;rounded=0;orthogonalLoop=1;jettySize=auto;html=1;entryX=0.5;entryY=0;entryDx=0;entryDy=0;" edge="1" parent="WIyWlLk6GJQsqaUBKTNV-1" source="F1O0uO3cKCnz4N3ddY6l-11" target="F1O0uO3cKCnz4N3ddY6l-30">
          <mxGeometry relative="1" as="geometry" />
        </mxCell>
        <mxCell id="F1O0uO3cKCnz4N3ddY6l-11" value="PersistentDataManager(singleton)" style="swimlane;" vertex="1" parent="WIyWlLk6GJQsqaUBKTNV-1">
          <mxGeometry x="270" y="360" width="310" height="200" as="geometry" />
        </mxCell>
        <mxCell id="F1O0uO3cKCnz4N3ddY6l-12" value="&lt;div align=&quot;left&quot;&gt;void Save(FileDataHandler fileDataHandler)&lt;/div&gt;&lt;div align=&quot;left&quot;&gt;void Load(FileDataHandler fileDataHander)&lt;br&gt;&lt;/div&gt;" style="text;html=1;align=center;verticalAlign=middle;resizable=0;points=[];autosize=1;strokeColor=none;fillColor=none;" vertex="1" parent="F1O0uO3cKCnz4N3ddY6l-11">
          <mxGeometry x="30" y="35" width="250" height="30" as="geometry" />
        </mxCell>
        <mxCell id="F1O0uO3cKCnz4N3ddY6l-15" value="void GetAllPersistentData()" style="text;html=1;strokeColor=none;fillColor=none;align=center;verticalAlign=middle;whiteSpace=wrap;rounded=0;" vertex="1" parent="F1O0uO3cKCnz4N3ddY6l-11">
          <mxGeometry x="30" y="80" width="160" height="30" as="geometry" />
        </mxCell>
        <mxCell id="F1O0uO3cKCnz4N3ddY6l-20" style="edgeStyle=orthogonalEdgeStyle;rounded=0;orthogonalLoop=1;jettySize=auto;html=1;" edge="1" parent="WIyWlLk6GJQsqaUBKTNV-1" source="F1O0uO3cKCnz4N3ddY6l-17" target="F1O0uO3cKCnz4N3ddY6l-11">
          <mxGeometry relative="1" as="geometry" />
        </mxCell>
        <mxCell id="F1O0uO3cKCnz4N3ddY6l-17" value="ObjectType2Data(Serializable)" style="rounded=0;whiteSpace=wrap;html=1;" vertex="1" parent="WIyWlLk6GJQsqaUBKTNV-1">
          <mxGeometry x="340" y="240" width="170" height="60" as="geometry" />
        </mxCell>
        <mxCell id="F1O0uO3cKCnz4N3ddY6l-19" style="edgeStyle=orthogonalEdgeStyle;rounded=0;orthogonalLoop=1;jettySize=auto;html=1;" edge="1" parent="WIyWlLk6GJQsqaUBKTNV-1" source="F1O0uO3cKCnz4N3ddY6l-8" target="F1O0uO3cKCnz4N3ddY6l-17">
          <mxGeometry relative="1" as="geometry" />
        </mxCell>
        <mxCell id="F1O0uO3cKCnz4N3ddY6l-22" value="ObjectType3Data(Serializable)" style="rounded=0;whiteSpace=wrap;html=1;" vertex="1" parent="WIyWlLk6GJQsqaUBKTNV-1">
          <mxGeometry x="555" y="240" width="170" height="60" as="geometry" />
        </mxCell>
        <mxCell id="F1O0uO3cKCnz4N3ddY6l-23" value="ObjectType1Data(Serializable)" style="rounded=0;whiteSpace=wrap;html=1;" vertex="1" parent="WIyWlLk6GJQsqaUBKTNV-1">
          <mxGeometry x="120" y="240" width="170" height="60" as="geometry" />
        </mxCell>
        <mxCell id="F1O0uO3cKCnz4N3ddY6l-29" style="edgeStyle=orthogonalEdgeStyle;rounded=0;orthogonalLoop=1;jettySize=auto;html=1;entryX=0.5;entryY=0;entryDx=0;entryDy=0;" edge="1" parent="WIyWlLk6GJQsqaUBKTNV-1" source="F1O0uO3cKCnz4N3ddY6l-8" target="F1O0uO3cKCnz4N3ddY6l-22">
          <mxGeometry relative="1" as="geometry" />
        </mxCell>
        <mxCell id="F1O0uO3cKCnz4N3ddY6l-32" style="edgeStyle=orthogonalEdgeStyle;rounded=0;orthogonalLoop=1;jettySize=auto;html=1;entryX=0.5;entryY=0;entryDx=0;entryDy=0;" edge="1" parent="WIyWlLk6GJQsqaUBKTNV-1" source="F1O0uO3cKCnz4N3ddY6l-30" target="F1O0uO3cKCnz4N3ddY6l-6">
          <mxGeometry relative="1" as="geometry" />
        </mxCell>
        <mxCell id="F1O0uO3cKCnz4N3ddY6l-30" value="MainData" style="rounded=0;whiteSpace=wrap;html=1;" vertex="1" parent="WIyWlLk6GJQsqaUBKTNV-1">
          <mxGeometry x="365" y="610" width="120" height="60" as="geometry" />
        </mxCell>
      </root>
    </mxGraphModel>
  </diagram>
</mxfile>
